REM MD5 7bd761f5375003e5f54652e790eca3f2
FILE "Tomb Raider (USA) (Rev 1).bin" BINARY
  TRACK 01 MODE2/2352
    INDEX 01 00:00:00
  TRACK 02 AUDIO
    INDEX 00 27:42:65
    INDEX 01 27:44:65
  TRACK 03 AUDIO
    INDEX 00 30:59:33
    INDEX 01 31:01:33
  TRACK 04 AUDIO
    INDEX 00 32:03:31
    INDEX 01 32:05:31
  TRACK 05 AUDIO
    INDEX 00 34:06:70
    INDEX 01 34:08:70
  TRACK 06 AUDIO
    INDEX 00 36:07:06
    INDEX 01 36:09:06
  TRACK 07 AUDIO
    INDEX 00 37:24:05
    INDEX 01 37:26:05
  TRACK 08 AUDIO
    INDEX 00 38:19:71
    INDEX 01 38:21:71
  TRACK 09 AUDIO
    INDEX 00 39:28:15
    INDEX 01 39:30:15
  TRACK 10 AUDIO
    INDEX 00 40:08:21
    INDEX 01 40:10:21
  TRACK 11 AUDIO
    INDEX 00 41:27:42
    INDEX 01 41:29:42
  TRACK 12 AUDIO
    INDEX 00 41:36:04
    INDEX 01 41:38:04
  TRACK 13 AUDIO
    INDEX 00 41:51:03
    INDEX 01 41:53:03
  TRACK 14 AUDIO
    INDEX 00 41:58:06
    INDEX 01 42:00:06
  TRACK 15 AUDIO
    INDEX 00 42:10:11
    INDEX 01 42:12:11
  TRACK 16 AUDIO
    INDEX 00 42:21:14
    INDEX 01 42:23:14
  TRACK 17 AUDIO
    INDEX 00 43:00:02
    INDEX 01 43:02:02
  TRACK 18 AUDIO
    INDEX 00 43:42:66
    INDEX 01 43:44:66
  TRACK 19 AUDIO
    INDEX 00 44:08:15
    INDEX 01 44:10:15
  TRACK 20 AUDIO
    INDEX 00 45:36:60
    INDEX 01 45:38:60
  TRACK 21 AUDIO
    INDEX 00 46:31:02
    INDEX 01 46:33:02
  TRACK 22 AUDIO
    INDEX 00 47:12:19
    INDEX 01 47:14:19
  TRACK 23 AUDIO
    INDEX 00 48:15:57
    INDEX 01 48:17:57
  TRACK 24 AUDIO
    INDEX 00 49:13:26
    INDEX 01 49:15:26
  TRACK 25 AUDIO
    INDEX 00 49:28:54
    INDEX 01 49:30:54
  TRACK 26 AUDIO
    INDEX 00 50:05:42
    INDEX 01 50:07:42
  TRACK 27 AUDIO
    INDEX 00 50:12:43
    INDEX 01 50:14:43
  TRACK 28 AUDIO
    INDEX 00 50:19:44
    INDEX 01 50:21:44
  TRACK 29 AUDIO
    INDEX 00 50:26:44
    INDEX 01 50:28:44
  TRACK 30 AUDIO
    INDEX 00 50:33:45
    INDEX 01 50:35:45
  TRACK 31 AUDIO
    INDEX 00 50:41:43
    INDEX 01 50:43:43
  TRACK 32 AUDIO
    INDEX 00 50:48:44
    INDEX 01 50:50:44
  TRACK 33 AUDIO
    INDEX 00 50:58:07
    INDEX 01 51:00:07
  TRACK 34 AUDIO
    INDEX 00 51:07:49
    INDEX 01 51:09:49
  TRACK 35 AUDIO
    INDEX 00 51:15:21
    INDEX 01 51:17:21
  TRACK 36 AUDIO
    INDEX 00 51:22:35
    INDEX 01 51:24:35
  TRACK 37 AUDIO
    INDEX 00 51:39:31
    INDEX 01 51:41:31
  TRACK 38 AUDIO
    INDEX 00 51:46:32
    INDEX 01 51:48:32
  TRACK 39 AUDIO
    INDEX 00 51:53:33
    INDEX 01 51:55:33
  TRACK 40 AUDIO
    INDEX 00 52:09:39
    INDEX 01 52:11:39
  TRACK 41 AUDIO
    INDEX 00 52:20:04
    INDEX 01 52:22:04
  TRACK 42 AUDIO
    INDEX 00 52:27:05
    INDEX 01 52:29:05
  TRACK 43 AUDIO
    INDEX 00 52:34:05
    INDEX 01 52:36:05
  TRACK 44 AUDIO
    INDEX 00 52:43:18
    INDEX 01 52:45:18
  TRACK 45 AUDIO
    INDEX 00 52:51:42
    INDEX 01 52:53:42
  TRACK 46 AUDIO
    INDEX 00 53:01:33
    INDEX 01 53:03:33
  TRACK 47 AUDIO
    INDEX 00 53:08:34
    INDEX 01 53:10:34
  TRACK 48 AUDIO
    INDEX 00 53:15:35
    INDEX 01 53:17:35
  TRACK 49 AUDIO
    INDEX 00 53:22:36
    INDEX 01 53:24:36
  TRACK 50 AUDIO
    INDEX 00 53:38:32
    INDEX 01 53:40:32
  TRACK 51 AUDIO
    INDEX 00 53:45:32
    INDEX 01 53:47:32
  TRACK 52 AUDIO
    INDEX 00 53:52:32
    INDEX 01 53:54:32
  TRACK 53 AUDIO
    INDEX 00 53:59:33
    INDEX 01 54:01:33
  TRACK 54 AUDIO
    INDEX 00 54:08:53
    INDEX 01 54:10:53
  TRACK 55 AUDIO
    INDEX 00 54:15:54
    INDEX 01 54:17:54
  TRACK 56 AUDIO
    INDEX 00 54:25:33
    INDEX 01 54:27:33
  TRACK 57 AUDIO
    INDEX 00 54:32:34
    INDEX 01 54:34:34
REM LEADOUT 57:51:34
